<svg width="668" height="206" viewBox="0 0 668 206" fill="none" xmlns="http://www.w3.org/2000/svg">
<path d="M485.3 9.19998C469.804 3.55366 453.425 0.720298 436.933 0.833331C383.6 0.833331 345.933 27.7 345.667 66.2666C345.333 94.6 372.433 110.567 392.933 120.033C413.967 129.767 421 135.9 420.933 144.6C420.8 157.833 404.133 163.833 388.633 163.833C367.333 163.833 355.7 160.867 337.8 153.433L331.167 150.333L323.6 194.733C336.567 200.133 359.933 204.767 384.067 205.167C440.767 205.167 477.833 178.467 478.267 137.433C478.733 114.8 464.067 97.7 433.2 83.5666C414.433 74.4 402.8 68.2666 402.8 58.9666C402.8 50.7333 412.767 41.9333 433.6 41.9333C447.465 41.5979 461.245 44.1992 474.033 49.5667L479.033 51.8L486.6 8.89999L485.3 9.19998ZM623.7 4.43332H582.033C569.067 4.43332 559.3 7.99999 553.633 20.8667L473.5 202.4H530.2L541.533 172.633L610.733 172.7C612.367 179.667 617.367 202.4 617.367 202.4H667.367L623.7 4.43332ZM268.967 2.76665H323L289.2 200.833H235.233L268.967 2.69999V2.76665ZM131.8 111.933L137.4 139.433L190.2 4.43332H247.433L162.4 202.133H105.3L58.6333 34.7333C57.8775 31.973 56.1025 29.6024 53.6666 28.1C36.8467 19.4112 19.0248 12.8176 0.599976 8.46664L1.33331 4.29997H88.3C100.1 4.76664 109.6 8.46664 112.767 21.0666L131.767 112.033L131.8 111.933ZM557.033 132.133L578.567 76.7333C578.3 77.3333 583 65.3 585.733 57.8666L589.433 74.9667L601.933 132.1H557L557.033 132.133Z" fill="black"/>
</svg>
