<svg width="117" height="91" viewBox="0 0 117 91" fill="none" xmlns="http://www.w3.org/2000/svg">
<path d="M35.3592 90.239V84.2476C35.3943 83.7437 35.3216 83.2381 35.1459 82.7645C34.9702 82.2909 34.6956 81.8602 34.3403 81.5011C33.985 81.142 33.5572 80.8628 33.0855 80.6821C32.6138 80.5014 32.1089 80.4233 31.6047 80.4531C30.9447 80.4102 30.2854 80.545 29.6953 80.8436C29.1051 81.1422 28.6059 81.5936 28.2496 82.1507C27.9249 81.6102 27.4604 81.1672 26.9051 80.8684C26.3497 80.5697 25.7241 80.4262 25.0941 80.4531C24.5449 80.4255 23.9981 80.5419 23.5077 80.7906C23.0173 81.0393 22.6004 81.4118 22.2982 81.8711V80.6928H20.2211V90.239H22.3181V84.9467C22.2727 84.6202 22.3003 84.2876 22.3987 83.9729C22.4972 83.6583 22.6641 83.3693 22.8875 83.1269C23.1109 82.8844 23.3852 82.6944 23.6908 82.5705C23.9963 82.4467 24.3255 82.392 24.6547 82.4105C26.0327 82.4105 26.7318 83.3091 26.7318 84.9267V90.239H28.8288V84.9467C28.7868 84.6208 28.8168 84.2896 28.9165 83.9764C29.0162 83.6632 29.1833 83.3757 29.4059 83.134C29.6286 82.8923 29.9015 82.7023 30.2055 82.5773C30.5095 82.4523 30.8371 82.3954 31.1654 82.4105C32.5832 82.4105 33.2623 83.3091 33.2623 84.9267V90.239H35.3592ZM47.0624 85.4658V80.6928H44.9853V81.8511C44.6308 81.3943 44.172 81.0289 43.6473 80.7857C43.1226 80.5425 42.5473 80.4284 41.9696 80.4531C40.6826 80.5163 39.4693 81.072 38.5807 82.0051C37.6922 82.9383 37.1967 84.1775 37.1967 85.466C37.1967 86.7545 37.6922 87.9936 38.5807 88.9268C39.4693 89.86 40.6826 90.4157 41.9696 90.4788C42.5474 90.5035 43.1226 90.3894 43.6473 90.1462C44.172 89.903 44.6308 89.5376 44.9853 89.0807V90.239H47.0624V85.4658ZM39.3336 85.4658C39.3658 84.9025 39.5622 84.361 39.8986 83.908C40.2349 83.4549 40.6965 83.1102 41.2263 82.9164C41.7562 82.7226 42.3313 82.6881 42.8805 82.8171C43.4298 82.9462 43.9292 83.2332 44.3174 83.6427C44.7055 84.0523 44.9652 84.5665 45.0646 85.1219C45.164 85.6773 45.0987 86.2496 44.8766 86.7683C44.6546 87.287 44.2857 87.7294 43.8152 88.0409C43.3448 88.3524 42.7935 88.5195 42.2293 88.5214C41.8338 88.5268 41.4416 88.4501 41.0772 88.2963C40.7128 88.1425 40.3842 87.9149 40.1122 87.6279C39.8401 87.3408 39.6305 87.0005 39.4965 86.6284C39.3625 86.2563 39.307 85.8604 39.3336 85.4658ZM91.5051 80.4419C92.2065 80.4351 92.9024 80.5656 93.5537 80.8258C94.1607 81.0681 94.7144 81.4271 95.1833 81.8824C95.6448 82.3351 96.0109 82.8757 96.2599 83.4723C96.7786 84.7508 96.7786 86.181 96.2599 87.4594C96.011 88.0561 95.6449 88.5969 95.1833 89.0496C94.7144 89.505 94.1608 89.8639 93.5537 90.106C92.236 90.618 90.7743 90.618 89.4566 90.106C88.8505 89.8646 88.2983 89.5056 87.8317 89.0496C87.3728 88.5957 87.0086 88.0551 86.7601 87.4594C86.242 86.1809 86.242 84.7509 86.7601 83.4723C87.0087 82.8767 87.3729 82.3364 87.8317 81.8824C88.2983 81.4264 88.8505 81.0674 89.4566 80.8258C90.1079 80.5656 90.8038 80.4351 91.5051 80.4419ZM91.5051 82.4058C91.0989 82.4021 90.6959 82.4784 90.3191 82.6301C89.9639 82.7726 89.6416 82.9863 89.3721 83.2579C89.1007 83.5355 88.8872 83.8642 88.744 84.225C88.4383 85.0242 88.4383 85.908 88.744 86.7071C88.8871 87.0679 89.1006 87.3966 89.3721 87.674C89.6416 87.9458 89.9639 88.1595 90.3191 88.302C91.0815 88.6011 91.9288 88.6011 92.6912 88.302C93.0474 88.1587 93.3712 87.9451 93.6432 87.674C93.9171 87.3975 94.1324 87.0687 94.2764 86.7071C94.5821 85.908 94.5821 85.0242 94.2764 84.225C94.1324 83.8634 93.917 83.5345 93.6432 83.2579C93.3712 82.9869 93.0474 82.7734 92.6912 82.6301C92.3143 82.4784 91.9113 82.4021 91.5051 82.4058ZM58.3642 85.4658C58.3443 82.4902 56.5069 80.4531 53.8308 80.4531C52.5354 80.5211 51.3167 81.0881 50.4304 82.0353C49.544 82.9825 49.059 84.2361 49.0771 85.5332C49.0952 86.8302 49.615 88.0699 50.5274 88.992C51.4398 89.9141 52.6738 90.4469 53.9706 90.4787C55.3954 90.5287 56.7888 90.0524 57.8849 89.1406L56.8664 87.6028C56.0777 88.2348 55.101 88.5861 54.0904 88.6013C53.4041 88.6591 52.7223 88.4475 52.1892 88.0114C51.6562 87.5753 51.3137 86.9489 51.2344 86.2647H58.3243C58.3443 86.0051 58.3642 85.7456 58.3642 85.4658ZM51.2545 84.6271C51.291 83.9863 51.5768 83.3851 52.0507 82.9521C52.5247 82.5192 53.1492 82.2889 53.7908 82.3105C54.4182 82.2983 55.0248 82.5353 55.4777 82.9695C55.9307 83.4037 56.1931 83.9998 56.2074 84.6271H51.2545ZM67.1111 83.1294C66.2049 82.6081 65.1808 82.3263 64.1355 82.3105C62.997 82.3105 62.3181 82.7299 62.3181 83.429C62.3181 84.0681 63.037 84.2476 63.9358 84.3674L64.9143 84.5072C66.9914 84.8068 68.2494 85.6855 68.2494 87.3631C68.2494 89.1805 66.6518 90.4788 63.8958 90.4788C62.4207 90.5195 60.9715 90.0854 59.7618 89.2403L60.7403 87.6228C61.6568 88.3025 62.7753 88.6542 63.9158 88.6214C65.3336 88.6214 66.0926 88.2021 66.0926 87.463C66.0926 86.9238 65.5533 86.6242 64.4151 86.4645L63.4364 86.3248C61.2996 86.0251 60.1413 85.0665 60.1413 83.5087C60.1413 81.6114 61.6989 80.4531 64.1155 80.4531C65.4825 80.406 66.8343 80.7527 68.0099 81.4518L67.1111 83.1294ZM77.0912 82.5901H73.6962V86.904C73.6962 87.8624 74.0357 88.5016 75.0742 88.5016C75.7224 88.4801 76.3546 88.2946 76.9116 87.9624L77.5106 89.7399C76.7319 90.2254 75.8321 90.4815 74.9144 90.4788C72.458 90.4788 71.5993 89.1607 71.5993 86.9437V82.5901H69.662V80.6928H71.5993L71.5987 77.7971H73.6956L73.6962 80.6928H77.0912V82.5901ZM84.2792 80.4531C84.783 80.4552 85.2829 80.543 85.7572 80.7129L85.1181 82.67C84.7053 82.5057 84.2642 82.4242 83.82 82.4303C82.4619 82.4303 81.7828 83.3091 81.7828 84.8867V90.239H79.7059V80.6928H81.763V81.8511C82.0178 81.4133 82.3861 81.0523 82.8289 80.8062C83.2718 80.5602 83.7728 80.4382 84.2792 80.4531ZM98.6584 88.8494C98.7875 88.8486 98.9155 88.8739 99.0346 88.924C99.149 88.9718 99.2534 89.0409 99.342 89.1277C99.4299 89.2143 99.5002 89.3172 99.5491 89.4305C99.5991 89.5469 99.6249 89.6723 99.6249 89.799C99.6249 89.9257 99.5991 90.0511 99.5491 90.1675C99.4999 90.2803 99.4296 90.3827 99.342 90.469C99.2532 90.5559 99.1489 90.6253 99.0346 90.6738C98.9157 90.7247 98.7877 90.7505 98.6584 90.7496C98.4681 90.7516 98.2815 90.6974 98.1219 90.5938C97.9622 90.4903 97.8366 90.342 97.7608 90.1675C97.7109 90.0511 97.6852 89.9257 97.6852 89.799C97.6852 89.6723 97.7109 89.547 97.7608 89.4305C97.8095 89.3173 97.8795 89.2145 97.967 89.1277C98.0555 89.0403 98.1603 88.9711 98.2755 88.924C98.3968 88.8738 98.527 88.8484 98.6584 88.8494ZM98.6584 90.54C98.7569 90.5408 98.8545 90.521 98.945 90.4818C99.0318 90.4441 99.1107 90.3904 99.1777 90.3235C99.2635 90.2379 99.327 90.1326 99.3625 90.0168C99.3981 89.9009 99.4047 89.7781 99.3817 89.6591C99.3588 89.5402 99.3069 89.4286 99.2308 89.3344C99.1546 89.2401 99.0565 89.166 98.945 89.1185C98.8544 89.0799 98.7568 89.0605 98.6584 89.0613C98.5581 89.0606 98.4587 89.08 98.3662 89.1185C98.2779 89.1549 98.1976 89.2082 98.1299 89.2754C97.9917 89.4149 97.9142 89.6032 97.9142 89.7995C97.9142 89.9957 97.9917 90.1841 98.1299 90.3235C98.1994 90.3926 98.2819 90.4473 98.3726 90.4845C98.4633 90.5216 98.5604 90.5405 98.6584 90.54ZM98.7143 89.3546C98.8078 89.3485 98.9006 89.3754 98.9764 89.4305C99.0066 89.4554 99.0307 89.487 99.0466 89.5227C99.0625 89.5585 99.07 89.5974 99.0683 89.6365C99.0694 89.67 99.0634 89.7034 99.0508 89.7344C99.0381 89.7655 99.0191 89.7936 98.995 89.8168C98.9371 89.8683 98.8638 89.899 98.7865 89.9042L99.0753 90.2372H98.8495L98.5817 89.9065H98.4955V90.2372H98.3069V89.3546H98.7143ZM98.4955 89.5201V89.7553H98.7121C98.7537 89.7574 98.795 89.7472 98.8309 89.726C98.8455 89.7163 98.8572 89.7029 98.865 89.6872C98.8727 89.6715 98.8762 89.654 98.875 89.6365C98.876 89.6194 98.8724 89.6022 98.8647 89.5869C98.8569 89.5715 98.8453 89.5584 98.8309 89.549C98.7949 89.5281 98.7537 89.518 98.7121 89.5201H98.4955Z" fill="black"/>
<path d="M74.1379 7.83435H42.6379V64.4408H74.1379V7.83435Z" fill="#7375CF"/>
<path d="M44.6381 36.1375C44.6331 30.6859 45.8685 25.3047 48.2507 20.4011C50.6329 15.4975 54.0995 11.2001 58.388 7.83433C53.0773 3.65996 46.6992 1.06399 39.9828 0.343115C33.2665 -0.377758 26.4828 0.805562 20.4071 3.75782C14.3315 6.71008 9.20905 11.3121 5.62527 17.038C2.0415 22.7639 0.140991 29.3826 0.140991 36.1375C0.140991 42.8925 2.0415 49.5112 5.62527 55.237C9.20905 60.9629 14.3315 65.565 20.4071 68.5173C26.4828 71.4695 33.2665 72.6528 39.9828 71.932C46.6992 71.2111 53.0773 68.6151 58.388 64.4407C54.0995 61.0749 50.6329 56.7776 48.2507 51.874C45.8685 46.9704 44.6331 41.5891 44.6381 36.1375Z" fill="#EB001B"/>
<path d="M113.199 58.4453V57.2864H113.666V57.0503H112.476V57.2864H112.943V58.4453H113.199ZM115.509 58.4453V57.048H115.144L114.725 58.0091L114.305 57.048H113.94V58.4453H114.198V57.3913L114.591 58.3H114.858L115.252 57.389V58.4453H115.509Z" fill="#00A2E5"/>
<path d="M116.633 36.1375C116.633 42.8924 114.733 49.511 111.15 55.2369C107.566 60.9628 102.444 65.5649 96.3682 68.5172C90.2926 71.4695 83.5091 72.6528 76.7928 71.9319C70.0765 71.2111 63.6986 68.6151 58.388 64.4407C62.6728 61.0715 66.1366 56.7735 68.5184 51.8707C70.9002 46.9679 72.1378 41.5883 72.1378 36.1375C72.1378 30.6868 70.9002 25.3072 68.5184 20.4044C66.1366 15.5016 62.6728 11.2035 58.388 7.83432C63.6986 3.65995 70.0765 1.06397 76.7928 0.343109C83.5091 -0.377755 90.2926 0.805586 96.3682 3.75787C102.444 6.71016 107.566 11.3123 111.15 17.0381C114.733 22.764 116.633 29.3827 116.633 36.1375Z" fill="#00A2E5"/>
</svg>
